<?xml version="1.0" encoding="UTF-8"?>
<svg xmlns="http://www.w3.org/2000/svg" width="16" height="16" viewBox="0 0 16 16">
  <title>Snapshots are up to date</title>
  <!-- Generated by tools/make-icons.py; edit that, not this. -->
  <style type="text/css" class="current-color-scheme">.ColorScheme-Text{color:#2e3436;}</style>
  <g class="ColorScheme-Text" fill="currentColor">
    <path fill-rule="evenodd" d="M8.00 0.80 8.99 0.84 9.89 0.95 10.69 1.11 11.40 1.32 12.02 1.56 12.56 1.81 13.01 2.06 13.37 2.29 13.65 2.50 13.84 2.66 13.96 2.77 14.00 2.81 14.00 4.02 14.00 5.03 14.00 5.86 14.00 6.52 14.00 7.04 14.00 7.43 14.00 7.70 14.00 7.89 14.00 8.00 14.00 8.06 14.00 8.08 14.00 8.08 13.88 9.24 13.56 10.29 13.06 11.23 12.44 12.07 11.74 12.80 11.00 13.43 10.26 13.97 9.56 14.40 8.94 14.73 8.44 14.97 8.12 15.11 8.00 15.16 6.62 14.55 5.47 13.86 4.53 13.11 3.78 12.33 3.19 11.55 2.75 10.78 2.43 10.07 2.22 9.42 2.09 8.88 2.03 8.45 2.00 8.18 2.00 8.08 2.00 6.87 2.00 5.86 2.00 5.04 2.00 4.38 2.00 3.86 2.00 3.47 2.00 3.19 2.00 3.01 2.00 2.90 2.00 2.84 2.00 2.82 2.00 2.81 2.04 2.77 2.16 2.66 2.35 2.50 2.63 2.29 2.99 2.06 3.44 1.81 3.98 1.56 4.60 1.32 5.31 1.11 6.11 0.95 7.01 0.84zM4.60 8.20 6.00 6.80 7.40 8.20 10.60 5.00 12.00 6.40 7.40 11.00z"/>
  </g>
</svg>
